<?xml version="1.0" encoding="UTF-8" standalone="no"?>
<!DOCTYPE svg PUBLIC "-//W3C//DTD SVG 1.1//EN"
 "http://www.w3.org/Graphics/SVG/1.1/DTD/svg11.dtd">
<!-- Generated by graphviz version 2.47.3 (20210619.1520)
 -->
<!-- Title: dependencies Pages: 1 -->
<svg width="832pt" height="247pt"
 viewBox="0.00 0.00 832.00 246.80" xmlns="http://www.w3.org/2000/svg" xmlns:xlink="http://www.w3.org/1999/xlink">
<g id="graph0" class="graph" transform="scale(1 1) rotate(0) translate(4 242.8)">
<title>dependencies</title>
<polygon fill="white" stroke="transparent" points="-4,4 -4,-242.8 828,-242.8 828,4 -4,4"/>
<text text-anchor="middle" x="412" y="-8.2" font-family="sans-serif" font-size="14.00">dependencies</text>
<g id="clust1" class="cluster">
<title>cluster_AppModule</title>
<polygon fill="none" stroke="black" stroke-dasharray="1,5" points="8,-32.8 8,-230.8 816,-230.8 816,-32.8 8,-32.8"/>
</g>
<g id="clust2" class="cluster">
<title>cluster_AppModule_declarations</title>
<polygon fill="none" stroke="black" points="686,-40.8 686,-92.8 808,-92.8 808,-40.8 686,-40.8"/>
</g>
<g id="clust4" class="cluster">
<title>cluster_AppModule_imports</title>
<polygon fill="none" stroke="black" points="190,-40.8 190,-92.8 678,-92.8 678,-40.8 190,-40.8"/>
</g>
<g id="clust6" class="cluster">
<title>cluster_AppModule_bootstrap</title>
<polygon fill="none" stroke="black" points="365,-170.8 365,-222.8 489,-222.8 489,-170.8 365,-170.8"/>
</g>
<g id="clust7" class="cluster">
<title>cluster_AppModule_providers</title>
<polygon fill="none" stroke="black" points="16,-40.8 16,-92.8 182,-92.8 182,-40.8 16,-40.8"/>
</g>
<!-- AppComponent -->
<g id="node1" class="node">
<title>AppComponent</title>
<polygon fill="#ffffb3" stroke="black" points="799.94,-84.8 694.06,-84.8 694.06,-48.8 799.94,-48.8 799.94,-84.8"/>
<text text-anchor="middle" x="747" y="-62.6" font-family="Times,serif" font-size="14.00">AppComponent</text>
</g>
<!-- AppModule -->
<g id="node2" class="node">
<title>AppModule</title>
<polygon fill="#8dd3c7" stroke="black" points="468.66,-149.8 465.66,-153.8 444.66,-153.8 441.66,-149.8 385.34,-149.8 385.34,-113.8 468.66,-113.8 468.66,-149.8"/>
<text text-anchor="middle" x="427" y="-127.6" font-family="Times,serif" font-size="14.00">AppModule</text>
</g>
<!-- AppComponent&#45;&gt;AppModule -->
<g id="edge1" class="edge">
<title>AppComponent&#45;&gt;AppModule</title>
<path fill="none" stroke="black" d="M747,-85.08C747,-106.12 747,-137.8 747,-137.8 747,-137.8 478.83,-137.8 478.83,-137.8"/>
<polygon fill="black" stroke="black" points="478.83,-134.3 468.83,-137.8 478.83,-141.3 478.83,-134.3"/>
</g>
<!-- AppComponent  -->
<g id="node7" class="node">
<title>AppComponent </title>
<polygon fill="#80b1d3" stroke="black" points="481.44,-214.8 372.56,-214.8 372.56,-178.8 481.44,-178.8 481.44,-214.8"/>
<text text-anchor="middle" x="427" y="-192.6" font-family="Times,serif" font-size="14.00">AppComponent </text>
</g>
<!-- AppModule&#45;&gt;AppComponent  -->
<g id="edge6" class="edge">
<title>AppModule&#45;&gt;AppComponent </title>
<path fill="none" stroke="black" stroke-dasharray="1,5" d="M427,-149.91C427,-149.91 427,-168.79 427,-168.79"/>
<polygon fill="black" stroke="black" points="423.5,-168.79 427,-178.79 430.5,-168.79 423.5,-168.79"/>
</g>
<!-- !environment -->
<g id="node3" class="node">
<title>!environment</title>
<polygon fill="#8dd3c7" stroke="black" points="669.92,-84.8 666.92,-88.8 645.92,-88.8 642.92,-84.8 578.08,-84.8 578.08,-48.8 669.92,-48.8 669.92,-84.8"/>
<text text-anchor="middle" x="624" y="-62.6" font-family="Times,serif" font-size="14.00">!environment</text>
</g>
<!-- !environment&#45;&gt;AppModule -->
<g id="edge2" class="edge">
<title>!environment&#45;&gt;AppModule</title>
<path fill="none" stroke="black" d="M624,-84.82C624,-102.17 624,-125.8 624,-125.8 624,-125.8 478.78,-125.8 478.78,-125.8"/>
<polygon fill="black" stroke="black" points="478.78,-122.3 468.78,-125.8 478.78,-129.3 478.78,-122.3"/>
</g>
<!-- AppRoutingModule -->
<g id="node4" class="node">
<title>AppRoutingModule</title>
<polygon fill="#8dd3c7" stroke="black" points="560.27,-84.8 557.27,-88.8 536.27,-88.8 533.27,-84.8 431.73,-84.8 431.73,-48.8 560.27,-48.8 560.27,-84.8"/>
<text text-anchor="middle" x="496" y="-62.6" font-family="Times,serif" font-size="14.00">AppRoutingModule</text>
</g>
<!-- AppRoutingModule&#45;&gt;AppModule -->
<g id="edge3" class="edge">
<title>AppRoutingModule&#45;&gt;AppModule</title>
<path fill="none" stroke="black" d="M450.22,-84.91C450.22,-84.91 450.22,-103.79 450.22,-103.79"/>
<polygon fill="black" stroke="black" points="446.72,-103.79 450.22,-113.79 453.72,-103.79 446.72,-103.79"/>
</g>
<!-- ConsentsModule -->
<g id="node5" class="node">
<title>ConsentsModule</title>
<polygon fill="#8dd3c7" stroke="black" points="413.38,-84.8 410.38,-88.8 389.38,-88.8 386.38,-84.8 302.62,-84.8 302.62,-48.8 413.38,-48.8 413.38,-84.8"/>
<text text-anchor="middle" x="358" y="-62.6" font-family="Times,serif" font-size="14.00">ConsentsModule</text>
</g>
<!-- ConsentsModule&#45;&gt;AppModule -->
<g id="edge4" class="edge">
<title>ConsentsModule&#45;&gt;AppModule</title>
<path fill="none" stroke="black" d="M399.31,-84.91C399.31,-84.91 399.31,-103.79 399.31,-103.79"/>
<polygon fill="black" stroke="black" points="395.81,-103.79 399.31,-113.79 402.81,-103.79 395.81,-103.79"/>
</g>
<!-- CoreModule -->
<g id="node6" class="node">
<title>CoreModule</title>
<polygon fill="#8dd3c7" stroke="black" points="284.26,-84.8 281.26,-88.8 260.26,-88.8 257.26,-84.8 197.74,-84.8 197.74,-48.8 284.26,-48.8 284.26,-84.8"/>
<text text-anchor="middle" x="241" y="-62.6" font-family="Times,serif" font-size="14.00">CoreModule</text>
</g>
<!-- CoreModule&#45;&gt;AppModule -->
<g id="edge5" class="edge">
<title>CoreModule&#45;&gt;AppModule</title>
<path fill="none" stroke="black" d="M241,-84.82C241,-102.17 241,-125.8 241,-125.8 241,-125.8 375.26,-125.8 375.26,-125.8"/>
<polygon fill="black" stroke="black" points="375.26,-129.3 385.26,-125.8 375.26,-122.3 375.26,-129.3"/>
</g>
<!-- ConsentsService -->
<g id="node8" class="node">
<title>ConsentsService</title>
<ellipse fill="#fdb462" stroke="black" cx="99" cy="-66.8" rx="75.3" ry="18"/>
<text text-anchor="middle" x="99" y="-62.6" font-family="Times,serif" font-size="14.00">ConsentsService</text>
</g>
<!-- ConsentsService&#45;&gt;AppModule -->
<g id="edge7" class="edge">
<title>ConsentsService&#45;&gt;AppModule</title>
<path fill="none" stroke="black" d="M99,-85.08C99,-106.12 99,-137.8 99,-137.8 99,-137.8 375.13,-137.8 375.13,-137.8"/>
<polygon fill="black" stroke="black" points="375.13,-141.3 385.13,-137.8 375.13,-134.3 375.13,-141.3"/>
</g>
</g>
</svg>
