<?xml version="1.0" encoding="UTF-8" standalone="no"?>
<!DOCTYPE svg PUBLIC "-//W3C//DTD SVG 1.1//EN"
 "http://www.w3.org/Graphics/SVG/1.1/DTD/svg11.dtd">
<!-- Generated by graphviz version 2.47.3 (20210619.1520)
 -->
<!-- Title: dependencies Pages: 1 -->
<svg width="493pt" height="247pt"
 viewBox="0.00 0.00 493.00 246.80" xmlns="http://www.w3.org/2000/svg" xmlns:xlink="http://www.w3.org/1999/xlink">
<g id="graph0" class="graph" transform="scale(1 1) rotate(0) translate(4 242.8)">
<title>dependencies</title>
<polygon fill="white" stroke="transparent" points="-4,4 -4,-242.8 489,-242.8 489,4 -4,4"/>
<text text-anchor="middle" x="242.5" y="-8.2" font-family="sans-serif" font-size="14.00">dependencies</text>
<g id="clust1" class="cluster">
<title>cluster_CoreModule</title>
<polygon fill="none" stroke="black" stroke-dasharray="1,5" points="8,-32.8 8,-230.8 477,-230.8 477,-32.8 8,-32.8"/>
</g>
<g id="clust2" class="cluster">
<title>cluster_CoreModule_declarations</title>
<polygon fill="none" stroke="black" points="22,-40.8 22,-92.8 464,-92.8 464,-40.8 22,-40.8"/>
</g>
<g id="clust7" class="cluster">
<title>cluster_CoreModule_exports</title>
<polygon fill="none" stroke="black" points="16,-170.8 16,-222.8 469,-222.8 469,-170.8 16,-170.8"/>
</g>
<!-- ButtonComponent -->
<g id="node1" class="node">
<title>ButtonComponent</title>
<polygon fill="#ffffb3" stroke="black" points="455.95,-84.8 336.05,-84.8 336.05,-48.8 455.95,-48.8 455.95,-84.8"/>
<text text-anchor="middle" x="396" y="-62.6" font-family="Times,serif" font-size="14.00">ButtonComponent</text>
</g>
<!-- CoreModule -->
<g id="node4" class="node">
<title>CoreModule</title>
<polygon fill="#8dd3c7" stroke="black" points="291.26,-149.8 288.26,-153.8 267.26,-153.8 264.26,-149.8 204.74,-149.8 204.74,-113.8 291.26,-113.8 291.26,-149.8"/>
<text text-anchor="middle" x="248" y="-127.6" font-family="Times,serif" font-size="14.00">CoreModule</text>
</g>
<!-- ButtonComponent&#45;&gt;CoreModule -->
<g id="edge1" class="edge">
<title>ButtonComponent&#45;&gt;CoreModule</title>
<path fill="none" stroke="black" d="M416.66,-84.82C416.66,-102.17 416.66,-125.8 416.66,-125.8 416.66,-125.8 301.43,-125.8 301.43,-125.8"/>
<polygon fill="black" stroke="black" points="301.43,-122.3 291.43,-125.8 301.43,-129.3 301.43,-122.3"/>
</g>
<!-- PaginationComponent -->
<g id="node2" class="node">
<title>PaginationComponent</title>
<polygon fill="#ffffb3" stroke="black" points="318.72,-84.8 177.28,-84.8 177.28,-48.8 318.72,-48.8 318.72,-84.8"/>
<text text-anchor="middle" x="248" y="-62.6" font-family="Times,serif" font-size="14.00">PaginationComponent</text>
</g>
<!-- PaginationComponent&#45;&gt;CoreModule -->
<g id="edge2" class="edge">
<title>PaginationComponent&#45;&gt;CoreModule</title>
<path fill="none" stroke="black" d="M248,-84.91C248,-84.91 248,-103.79 248,-103.79"/>
<polygon fill="black" stroke="black" points="244.5,-103.79 248,-113.79 251.5,-103.79 244.5,-103.79"/>
</g>
<!-- SideNavComponent -->
<g id="node3" class="node">
<title>SideNavComponent</title>
<polygon fill="#ffffb3" stroke="black" points="159.54,-84.8 30.46,-84.8 30.46,-48.8 159.54,-48.8 159.54,-84.8"/>
<text text-anchor="middle" x="95" y="-62.6" font-family="Times,serif" font-size="14.00">SideNavComponent</text>
</g>
<!-- SideNavComponent&#45;&gt;CoreModule -->
<g id="edge3" class="edge">
<title>SideNavComponent&#45;&gt;CoreModule</title>
<path fill="none" stroke="black" d="M115.09,-84.82C115.09,-102.17 115.09,-125.8 115.09,-125.8 115.09,-125.8 194.48,-125.8 194.48,-125.8"/>
<polygon fill="black" stroke="black" points="194.48,-129.3 204.48,-125.8 194.48,-122.3 194.48,-129.3"/>
</g>
<!-- ButtonComponent  -->
<g id="node5" class="node">
<title>ButtonComponent </title>
<polygon fill="#fb8072" stroke="black" points="461.45,-214.8 338.55,-214.8 338.55,-178.8 461.45,-178.8 461.45,-214.8"/>
<text text-anchor="middle" x="400" y="-192.6" font-family="Times,serif" font-size="14.00">ButtonComponent </text>
</g>
<!-- CoreModule&#45;&gt;ButtonComponent  -->
<g id="edge4" class="edge">
<title>CoreModule&#45;&gt;ButtonComponent </title>
<path fill="none" stroke="black" stroke-dasharray="5,2" d="M291.51,-137.8C329.16,-137.8 377.59,-137.8 377.59,-137.8 377.59,-137.8 377.59,-168.78 377.59,-168.78"/>
<polygon fill="black" stroke="black" points="374.09,-168.78 377.59,-178.78 381.09,-168.78 374.09,-168.78"/>
</g>
<!-- PaginationComponent  -->
<g id="node6" class="node">
<title>PaginationComponent </title>
<polygon fill="#fb8072" stroke="black" points="320.22,-214.8 175.78,-214.8 175.78,-178.8 320.22,-178.8 320.22,-214.8"/>
<text text-anchor="middle" x="248" y="-192.6" font-family="Times,serif" font-size="14.00">PaginationComponent </text>
</g>
<!-- CoreModule&#45;&gt;PaginationComponent  -->
<g id="edge5" class="edge">
<title>CoreModule&#45;&gt;PaginationComponent </title>
<path fill="none" stroke="black" stroke-dasharray="5,2" d="M248,-149.91C248,-149.91 248,-168.79 248,-168.79"/>
<polygon fill="black" stroke="black" points="244.5,-168.79 248,-178.79 251.5,-168.79 244.5,-168.79"/>
</g>
<!-- SideNavComponent  -->
<g id="node7" class="node">
<title>SideNavComponent </title>
<polygon fill="#fb8072" stroke="black" points="157.54,-214.8 24.46,-214.8 24.46,-178.8 157.54,-178.8 157.54,-214.8"/>
<text text-anchor="middle" x="91" y="-192.6" font-family="Times,serif" font-size="14.00">SideNavComponent </text>
</g>
<!-- CoreModule&#45;&gt;SideNavComponent  -->
<g id="edge6" class="edge">
<title>CoreModule&#45;&gt;SideNavComponent </title>
<path fill="none" stroke="black" stroke-dasharray="5,2" d="M204.66,-137.8C152.73,-137.8 72.66,-137.8 72.66,-137.8 72.66,-137.8 72.66,-168.78 72.66,-168.78"/>
<polygon fill="black" stroke="black" points="69.16,-168.78 72.66,-178.78 76.16,-168.78 69.16,-168.78"/>
</g>
</g>
</svg>
