<?xml version="1.0" encoding="UTF-8" standalone="no"?>
<!DOCTYPE svg PUBLIC "-//W3C//DTD SVG 1.1//EN"
 "http://www.w3.org/Graphics/SVG/1.1/DTD/svg11.dtd">
<!-- Generated by graphviz version 2.47.3 (20210619.1520)
 -->
<!-- Title: dependencies Pages: 1 -->
<svg width="492pt" height="174pt"
 viewBox="0.00 0.00 492.00 173.80" xmlns="http://www.w3.org/2000/svg" xmlns:xlink="http://www.w3.org/1999/xlink">
<g id="graph0" class="graph" transform="scale(1 1) rotate(0) translate(4 169.8)">
<title>dependencies</title>
<polygon fill="white" stroke="transparent" points="-4,4 -4,-169.8 488,-169.8 488,4 -4,4"/>
<text text-anchor="middle" x="242" y="-8.2" font-family="sans-serif" font-size="14.00">dependencies</text>
<g id="clust1" class="cluster">
<title>cluster_ConsentsModule</title>
<polygon fill="none" stroke="black" stroke-dasharray="1,5" points="8,-32.8 8,-157.8 476,-157.8 476,-32.8 8,-32.8"/>
</g>
<g id="clust2" class="cluster">
<title>cluster_ConsentsModule_declarations</title>
<polygon fill="none" stroke="black" points="126,-40.8 126,-92.8 468,-92.8 468,-40.8 126,-40.8"/>
</g>
<g id="clust5" class="cluster">
<title>cluster_ConsentsModule_imports</title>
<polygon fill="none" stroke="black" points="16,-40.8 16,-92.8 118,-92.8 118,-40.8 16,-40.8"/>
</g>
<!-- GiveConsentComponent -->
<g id="node1" class="node">
<title>GiveConsentComponent</title>
<polygon fill="#ffffb3" stroke="black" points="460.43,-84.8 305.57,-84.8 305.57,-48.8 460.43,-48.8 460.43,-84.8"/>
<text text-anchor="middle" x="383" y="-62.6" font-family="Times,serif" font-size="14.00">GiveConsentComponent</text>
</g>
<!-- ConsentsModule -->
<g id="node3" class="node">
<title>ConsentsModule</title>
<polygon fill="#8dd3c7" stroke="black" points="266.38,-149.8 263.38,-153.8 242.38,-153.8 239.38,-149.8 155.62,-149.8 155.62,-113.8 266.38,-113.8 266.38,-149.8"/>
<text text-anchor="middle" x="211" y="-127.6" font-family="Times,serif" font-size="14.00">ConsentsModule</text>
</g>
<!-- GiveConsentComponent&#45;&gt;ConsentsModule -->
<g id="edge1" class="edge">
<title>GiveConsentComponent&#45;&gt;ConsentsModule</title>
<path fill="none" stroke="black" d="M383,-84.91C383,-104.14 383,-131.8 383,-131.8 383,-131.8 276.84,-131.8 276.84,-131.8"/>
<polygon fill="black" stroke="black" points="276.84,-128.3 266.84,-131.8 276.84,-135.3 276.84,-128.3"/>
</g>
<!-- ListConsentsComponent -->
<g id="node2" class="node">
<title>ListConsentsComponent</title>
<polygon fill="#ffffb3" stroke="black" points="288.44,-84.8 133.56,-84.8 133.56,-48.8 288.44,-48.8 288.44,-84.8"/>
<text text-anchor="middle" x="211" y="-62.6" font-family="Times,serif" font-size="14.00">ListConsentsComponent</text>
</g>
<!-- ListConsentsComponent&#45;&gt;ConsentsModule -->
<g id="edge2" class="edge">
<title>ListConsentsComponent&#45;&gt;ConsentsModule</title>
<path fill="none" stroke="black" d="M211,-84.91C211,-84.91 211,-103.79 211,-103.79"/>
<polygon fill="black" stroke="black" points="207.5,-103.79 211,-113.79 214.5,-103.79 207.5,-103.79"/>
</g>
<!-- CoreModule -->
<g id="node4" class="node">
<title>CoreModule</title>
<polygon fill="#8dd3c7" stroke="black" points="110.26,-84.8 107.26,-88.8 86.26,-88.8 83.26,-84.8 23.74,-84.8 23.74,-48.8 110.26,-48.8 110.26,-84.8"/>
<text text-anchor="middle" x="67" y="-62.6" font-family="Times,serif" font-size="14.00">CoreModule</text>
</g>
<!-- CoreModule&#45;&gt;ConsentsModule -->
<g id="edge3" class="edge">
<title>CoreModule&#45;&gt;ConsentsModule</title>
<path fill="none" stroke="black" d="M67,-84.91C67,-104.14 67,-131.8 67,-131.8 67,-131.8 145.33,-131.8 145.33,-131.8"/>
<polygon fill="black" stroke="black" points="145.33,-135.3 155.33,-131.8 145.33,-128.3 145.33,-135.3"/>
</g>
</g>
</svg>
